<svg width="16" height="16" viewBox="0 0 16 16" fill="none" xmlns="http://www.w3.org/2000/svg">
    <path d="M8.002 7.833c.32 0 .595-.114.823-.343.228-.229.342-.504.342-.825a1.12 1.12 0 0 0-.343-.823 1.127 1.127 0 0 0-.825-.342 1.12 1.12 0 0 0-.824.343 1.127 1.127 0 0 0-.342.825c0 .321.115.596.343.824.23.227.504.341.825.341zM8 13.35c1.478-1.344 2.57-2.564 3.275-3.658.706-1.095 1.058-2.059 1.058-2.892 0-1.309-.418-2.38-1.255-3.215C10.242 2.751 9.216 2.333 8 2.333c-1.216 0-2.242.418-3.078 1.252-.837.835-1.255 1.906-1.255 3.215 0 .833.36 1.797 1.083 2.892.722 1.094 1.806 2.314 3.25 3.658zm0 1.317c-1.789-1.523-3.125-2.936-4.008-4.242C3.108 9.119 2.667 7.911 2.667 6.8c0-1.667.536-2.994 1.608-3.983C5.347 1.827 6.589 1.333 8 1.333s2.653.495 3.725 1.484 1.608 2.316 1.608 3.983c0 1.111-.441 2.32-1.325 3.625-.883 1.306-2.22 2.72-4.008 4.242z" fill="#9DA0A6"/>
</svg>
