<svg width="16" height="16" viewBox="0 0 16 16" fill="none" xmlns="http://www.w3.org/2000/svg">
    <path d="M8 7.983c-.733 0-1.333-.233-1.8-.7-.467-.466-.7-1.066-.7-1.8 0-.733.233-1.333.7-1.8.467-.466 1.067-.7 1.8-.7.733 0 1.333.234 1.8.7.467.467.7 1.067.7 1.8 0 .734-.233 1.334-.7 1.8-.467.467-1.067.7-1.8.7zm-5.333 5.35v-1.566c0-.423.105-.784.316-1.084.211-.3.484-.527.817-.683a12.526 12.526 0 0 1 2.142-.75A8.657 8.657 0 0 1 8 9c.689 0 1.372.086 2.05.258.678.173 1.388.42 2.132.745.348.157.627.385.836.683.21.298.315.658.315 1.08v1.567H2.667zm1-1h8.666v-.566a.913.913 0 0 0-.158-.509 1.003 1.003 0 0 0-.392-.358c-.71-.344-1.36-.58-1.95-.708A8.621 8.621 0 0 0 8 10c-.633 0-1.25.064-1.85.192-.6.127-1.25.364-1.95.708a.947.947 0 0 0-.383.358.95.95 0 0 0-.15.509v.566zM8 6.983c.433 0 .792-.141 1.075-.425.283-.283.425-.641.425-1.075 0-.433-.142-.791-.425-1.075-.283-.283-.642-.425-1.075-.425-.433 0-.792.142-1.075.425-.283.284-.425.642-.425 1.075 0 .434.142.792.425 1.075.283.284.642.425 1.075.425z" fill="#9DA0A6"/>
</svg>
